# xmcd
#
# Track frame offsets:
#	150
#	9687
#	26197
#	37500
#	51585
#	67982
#	91635
#	104782
#	120937
#	137172
#	151432
#	162797
#	180625
#	193587
#	215090
#
# Disc length: 3108 seconds
#
# Revision: 0
# Processed by: cddbd v1.4PL0 Copyright (c) Steve Scherf et al.
# Submitted via: dBpowerAMP V4.0
#
DISCID=c90c220f
DTITLE=Various Artist - Country Band Vol. 1
DYEAR=1900
DGENRE=Country
TTITLE0=Larry Lowman/Big One
TTITLE1=Sweethearts/When The Morning Comes
TTITLE2=Ashley Evans/All My Lovin
TTITLE3=Joe Nichols/I Hate The Way I Love you
TTITLE4=Gretchen Peters/Waiting For The Light To Turn Green
TTITLE5=One Way Band/Sweet Home Alabama
TTITLE6=Paulette Carlson/I've Got your Number
TTITLE7=Linda Martins/Summer Breeze
TTITLE8=Doug Wayne/Fire and Rain
TTITLE9=Don Cox/All Over Town
TTITLE10=Melanie NcGowon/My Baby Loves Me
TTITLE11=Tim O'Brien/Señor
TTITLE12=Doug Wayne/Yesterday
TTITLE13=Anne Ashby/Sunshine On My Shoulders
TTITLE14=Alison Krauss/I Will
EXTD=
EXTT0=
EXTT1=
EXTT2=
EXTT3=
EXTT4=
EXTT5=
EXTT6=
EXTT7=
EXTT8=
EXTT9=
EXTT10=
EXTT11=
EXTT12=
EXTT13=
EXTT14=
PLAYORDER=
